<svg width="1280" height="1080" viewBox="0 0 1280 1080" fill="none" xmlns="http://www.w3.org/2000/svg">
<g clip-path="url(#clip0_23_2)">
<rect width="1280" height="1080" fill="#FDF6EC"/>
<rect x="2" y="1" width="1280" height="125" fill="#EBDDCB"/>
<rect y="1044" width="1280" height="36" fill="#EBDDCB"/>
<rect x="246" y="1026" width="871" height="1004" rx="30" transform="rotate(-90 246 1026)" fill="#F3D9CF" fill-opacity="0.7"/>
<rect x="24" y="1026" width="871" height="188" rx="30" transform="rotate(-90 24 1026)" fill="#F3D9CF" fill-opacity="0.7"/>
<path d="M54.6797 182H51.6953V174.211L49.5391 179.266H47.4688L45.3125 174.211V182H42.4844V170.367H45.9688L48.5859 176.203L51.1953 170.367H54.6797V182ZM66.1406 178.133H59.7031C59.7448 178.82 60.0052 179.346 60.4844 179.711C60.9688 180.076 61.6797 180.258 62.6172 180.258C63.2109 180.258 63.7865 180.151 64.3438 179.938C64.901 179.724 65.3411 179.495 65.6641 179.25H65.9766V181.508C65.3411 181.763 64.7422 181.948 64.1797 182.062C63.6172 182.177 62.9948 182.234 62.3125 182.234C60.5521 182.234 59.2031 181.839 58.2656 181.047C57.3281 180.255 56.8594 179.128 56.8594 177.664C56.8594 176.216 57.3021 175.07 58.1875 174.227C59.0781 173.378 60.2969 172.953 61.8438 172.953C63.2708 172.953 64.3438 173.315 65.0625 174.039C65.7812 174.758 66.1406 175.794 66.1406 177.148V178.133ZM63.3438 176.484C63.3281 175.896 63.1823 175.453 62.9062 175.156C62.6302 174.859 62.2005 174.711 61.6172 174.711C61.0755 174.711 60.6302 174.852 60.2812 175.133C59.9323 175.414 59.737 175.865 59.6953 176.484H63.3438ZM76.6562 182H73.8438V181.086C73.3594 181.482 72.9062 181.773 72.4844 181.961C72.0625 182.148 71.5755 182.242 71.0234 182.242C69.9557 182.242 69.1016 181.831 68.4609 181.008C67.8203 180.185 67.5 179.076 67.5 177.68C67.5 176.935 67.6068 176.276 67.8203 175.703C68.0391 175.125 68.3359 174.63 68.7109 174.219C69.0651 173.828 69.4948 173.526 70 173.312C70.5052 173.094 71.0104 172.984 71.5156 172.984C72.0417 172.984 72.4714 173.042 72.8047 173.156C73.1432 173.266 73.4896 173.406 73.8438 173.578V169.844H76.6562V182ZM73.8438 179.578V175.273C73.6458 175.19 73.4375 175.13 73.2188 175.094C73 175.057 72.7995 175.039 72.6172 175.039C71.8776 175.039 71.3229 175.271 70.9531 175.734C70.5833 176.193 70.3984 176.831 70.3984 177.648C70.3984 178.508 70.5469 179.133 70.8438 179.523C71.1406 179.909 71.6172 180.102 72.2734 180.102C72.5286 180.102 72.7995 180.055 73.0859 179.961C73.3724 179.862 73.625 179.734 73.8438 179.578ZM82.125 182H79.3125V173.227H82.125V182ZM82.2031 171.977H79.2344V169.844H82.2031V171.977ZM93.3125 182H90.5V181.086C90.0156 181.482 89.5625 181.773 89.1406 181.961C88.7188 182.148 88.2318 182.242 87.6797 182.242C86.612 182.242 85.7578 181.831 85.1172 181.008C84.4766 180.185 84.1562 179.076 84.1562 177.68C84.1562 176.935 84.263 176.276 84.4766 175.703C84.6953 175.125 84.9922 174.63 85.3672 174.219C85.7214 173.828 86.151 173.526 86.6562 173.312C87.1615 173.094 87.6667 172.984 88.1719 172.984C88.6979 172.984 89.1276 173.042 89.4609 173.156C89.7995 173.266 90.1458 173.406 90.5 173.578V169.844H93.3125V182ZM90.5 179.578V175.273C90.3021 175.19 90.0938 175.13 89.875 175.094C89.6562 175.057 89.4557 175.039 89.2734 175.039C88.5339 175.039 87.9792 175.271 87.6094 175.734C87.2396 176.193 87.0547 176.831 87.0547 177.648C87.0547 178.508 87.2031 179.133 87.5 179.523C87.7969 179.909 88.2734 180.102 88.9297 180.102C89.1849 180.102 89.4557 180.055 89.7422 179.961C90.0286 179.862 90.2812 179.734 90.5 179.578ZM101.281 179.711V177.883C100.901 177.914 100.49 177.958 100.047 178.016C99.6042 178.068 99.2682 178.13 99.0391 178.203C98.7578 178.292 98.5417 178.422 98.3906 178.594C98.2448 178.76 98.1719 178.982 98.1719 179.258C98.1719 179.44 98.1875 179.589 98.2188 179.703C98.25 179.818 98.3281 179.927 98.4531 180.031C98.5729 180.135 98.7161 180.214 98.8828 180.266C99.0495 180.312 99.3099 180.336 99.6641 180.336C99.9453 180.336 100.229 180.279 100.516 180.164C100.807 180.049 101.062 179.898 101.281 179.711ZM101.281 181.07C101.13 181.185 100.943 181.323 100.719 181.484C100.495 181.646 100.284 181.773 100.086 181.867C99.8099 181.992 99.5234 182.083 99.2266 182.141C98.9297 182.203 98.6042 182.234 98.25 182.234C97.4167 182.234 96.7188 181.977 96.1562 181.461C95.5938 180.945 95.3125 180.286 95.3125 179.484C95.3125 178.844 95.4557 178.32 95.7422 177.914C96.0286 177.508 96.4349 177.188 96.9609 176.953C97.4818 176.719 98.1276 176.552 98.8984 176.453C99.6693 176.354 100.469 176.281 101.297 176.234V176.188C101.297 175.703 101.099 175.37 100.703 175.188C100.307 175 99.724 174.906 98.9531 174.906C98.4896 174.906 97.9948 174.99 97.4688 175.156C96.9427 175.318 96.5651 175.443 96.3359 175.531H96.0781V173.414C96.375 173.336 96.8568 173.245 97.5234 173.141C98.1953 173.031 98.8672 172.977 99.5391 172.977C101.138 172.977 102.292 173.224 103 173.719C103.714 174.208 104.07 174.979 104.07 176.031V182H101.281V181.07ZM114.281 179.219C114.281 180.125 113.875 180.857 113.062 181.414C112.25 181.966 111.138 182.242 109.727 182.242C108.945 182.242 108.237 182.169 107.602 182.023C106.966 181.878 106.456 181.716 106.07 181.539V179.227H106.328C106.469 179.326 106.63 179.435 106.812 179.555C107 179.669 107.263 179.794 107.602 179.93C107.893 180.049 108.224 180.154 108.594 180.242C108.964 180.326 109.359 180.367 109.781 180.367C110.333 180.367 110.742 180.307 111.008 180.188C111.273 180.062 111.406 179.88 111.406 179.641C111.406 179.427 111.328 179.273 111.172 179.18C111.016 179.081 110.719 178.987 110.281 178.898C110.073 178.852 109.789 178.802 109.43 178.75C109.076 178.693 108.753 178.625 108.461 178.547C107.664 178.339 107.073 178.016 106.688 177.578C106.302 177.135 106.109 176.586 106.109 175.93C106.109 175.086 106.508 174.385 107.305 173.828C108.107 173.266 109.201 172.984 110.586 172.984C111.242 172.984 111.87 173.052 112.469 173.188C113.073 173.318 113.544 173.458 113.883 173.609V175.828H113.641C113.224 175.542 112.747 175.31 112.211 175.133C111.68 174.951 111.141 174.859 110.594 174.859C110.141 174.859 109.758 174.922 109.445 175.047C109.138 175.172 108.984 175.349 108.984 175.578C108.984 175.786 109.055 175.945 109.195 176.055C109.336 176.164 109.667 176.273 110.188 176.383C110.474 176.44 110.781 176.497 111.109 176.555C111.443 176.607 111.776 176.674 112.109 176.758C112.849 176.951 113.396 177.255 113.75 177.672C114.104 178.083 114.281 178.599 114.281 179.219Z" fill="black"/>
<rect x="246" y="9" width="1004" height="100" rx="30" fill="#F3D9CF" fill-opacity="0.7"/>
<path d="M258.477 19.1953C258.477 20.2786 258.229 21.25 257.734 22.1094C257.24 22.9635 256.615 23.6198 255.859 24.0781C255.292 24.4219 254.669 24.6615 253.992 24.7969C253.315 24.9323 252.513 25 251.586 25H247.484V13.3672H251.703C252.651 13.3672 253.469 13.4479 254.156 13.6094C254.844 13.7656 255.422 13.9896 255.891 14.2812C256.693 14.7708 257.323 15.4323 257.781 16.2656C258.245 17.0938 258.477 18.0703 258.477 19.1953ZM255.375 19.1719C255.375 18.4062 255.234 17.7526 254.953 17.2109C254.677 16.6641 254.237 16.237 253.633 15.9297C253.326 15.7786 253.01 15.6771 252.688 15.625C252.37 15.5677 251.888 15.5391 251.242 15.5391H250.484V22.8203H251.242C251.956 22.8203 252.479 22.7891 252.812 22.7266C253.146 22.6589 253.471 22.5391 253.789 22.3672C254.336 22.0547 254.737 21.638 254.992 21.1172C255.247 20.5911 255.375 19.9427 255.375 19.1719ZM263.422 25H260.609V16.2266H263.422V25ZM263.5 14.9766H260.531V12.8438H263.5V14.9766ZM274.656 18.7812V25H271.828V20.6172C271.828 20.1901 271.818 19.8281 271.797 19.5312C271.776 19.2292 271.719 18.9844 271.625 18.7969C271.531 18.6094 271.388 18.474 271.195 18.3906C271.008 18.3021 270.742 18.2578 270.398 18.2578C270.122 18.2578 269.854 18.3151 269.594 18.4297C269.333 18.5391 269.099 18.6562 268.891 18.7812V25H266.078V16.2266H268.891V17.1953C269.375 16.8151 269.839 16.5182 270.281 16.3047C270.724 16.0911 271.214 15.9844 271.75 15.9844C272.328 15.9844 272.839 16.1146 273.281 16.375C273.724 16.6302 274.07 17.0078 274.32 17.5078C274.883 17.0339 275.43 16.6615 275.961 16.3906C276.492 16.1198 277.013 15.9844 277.523 15.9844C278.471 15.9844 279.19 16.2682 279.68 16.8359C280.174 17.4036 280.422 18.2214 280.422 19.2891V25H277.594V20.6172C277.594 20.1849 277.583 19.8203 277.562 19.5234C277.547 19.2266 277.492 18.9844 277.398 18.7969C277.31 18.6094 277.169 18.474 276.977 18.3906C276.784 18.3021 276.513 18.2578 276.164 18.2578C275.93 18.2578 275.701 18.2995 275.477 18.3828C275.253 18.4609 274.979 18.5938 274.656 18.7812ZM291.656 21.1328H285.219C285.26 21.8203 285.521 22.3464 286 22.7109C286.484 23.0755 287.195 23.2578 288.133 23.2578C288.727 23.2578 289.302 23.151 289.859 22.9375C290.417 22.724 290.857 22.4948 291.18 22.25H291.492V24.5078C290.857 24.763 290.258 24.9479 289.695 25.0625C289.133 25.1771 288.51 25.2344 287.828 25.2344C286.068 25.2344 284.719 24.8385 283.781 24.0469C282.844 23.2552 282.375 22.1276 282.375 20.6641C282.375 19.2161 282.818 18.0703 283.703 17.2266C284.594 16.3776 285.812 15.9531 287.359 15.9531C288.786 15.9531 289.859 16.3151 290.578 17.0391C291.297 17.7578 291.656 18.7943 291.656 20.1484V21.1328ZM288.859 19.4844C288.844 18.8958 288.698 18.4531 288.422 18.1562C288.146 17.8594 287.716 17.7109 287.133 17.7109C286.591 17.7109 286.146 17.8516 285.797 18.1328C285.448 18.4141 285.253 18.8646 285.211 19.4844H288.859ZM302.453 25H299.625V20.6484C299.625 20.2943 299.607 19.9427 299.57 19.5938C299.534 19.2396 299.471 18.9792 299.383 18.8125C299.279 18.6198 299.125 18.4792 298.922 18.3906C298.724 18.3021 298.445 18.2578 298.086 18.2578C297.831 18.2578 297.57 18.2995 297.305 18.3828C297.044 18.4661 296.76 18.599 296.453 18.7812V25H293.641V16.2266H296.453V17.1953C296.953 16.8047 297.432 16.5052 297.891 16.2969C298.354 16.0885 298.867 15.9844 299.43 15.9844C300.378 15.9844 301.117 16.2604 301.648 16.8125C302.185 17.3646 302.453 18.1901 302.453 19.2891V25ZM312.672 22.2188C312.672 23.125 312.266 23.8568 311.453 24.4141C310.641 24.9661 309.529 25.2422 308.117 25.2422C307.336 25.2422 306.628 25.1693 305.992 25.0234C305.357 24.8776 304.846 24.7161 304.461 24.5391V22.2266H304.719C304.859 22.3255 305.021 22.4349 305.203 22.5547C305.391 22.6693 305.654 22.7943 305.992 22.9297C306.284 23.0495 306.615 23.1536 306.984 23.2422C307.354 23.3255 307.75 23.3672 308.172 23.3672C308.724 23.3672 309.133 23.3073 309.398 23.1875C309.664 23.0625 309.797 22.8802 309.797 22.6406C309.797 22.4271 309.719 22.2734 309.562 22.1797C309.406 22.0807 309.109 21.987 308.672 21.8984C308.464 21.8516 308.18 21.8021 307.82 21.75C307.466 21.6927 307.143 21.625 306.852 21.5469C306.055 21.3385 305.464 21.0156 305.078 20.5781C304.693 20.1354 304.5 19.5859 304.5 18.9297C304.5 18.0859 304.898 17.3854 305.695 16.8281C306.497 16.2656 307.591 15.9844 308.977 15.9844C309.633 15.9844 310.26 16.0521 310.859 16.1875C311.464 16.3177 311.935 16.4583 312.273 16.6094V18.8281H312.031C311.615 18.5417 311.138 18.3099 310.602 18.1328C310.07 17.9505 309.531 17.8594 308.984 17.8594C308.531 17.8594 308.148 17.9219 307.836 18.0469C307.529 18.1719 307.375 18.349 307.375 18.5781C307.375 18.7865 307.445 18.9453 307.586 19.0547C307.727 19.1641 308.057 19.2734 308.578 19.3828C308.865 19.4401 309.172 19.4974 309.5 19.5547C309.833 19.6068 310.167 19.6745 310.5 19.7578C311.24 19.9505 311.786 20.2552 312.141 20.6719C312.495 21.0833 312.672 21.599 312.672 22.2188ZM323.516 20.6172C323.516 22.0599 323.094 23.1979 322.25 24.0312C321.411 24.8594 320.232 25.2734 318.711 25.2734C317.19 25.2734 316.008 24.8594 315.164 24.0312C314.326 23.1979 313.906 22.0599 313.906 20.6172C313.906 19.1641 314.328 18.0234 315.172 17.1953C316.021 16.3672 317.201 15.9531 318.711 15.9531C320.242 15.9531 321.424 16.3698 322.258 17.2031C323.096 18.0365 323.516 19.1745 323.516 20.6172ZM320.055 22.75C320.237 22.526 320.372 22.2578 320.461 21.9453C320.555 21.6276 320.602 21.1901 320.602 20.6328C320.602 20.1172 320.555 19.6849 320.461 19.3359C320.367 18.987 320.237 18.7083 320.07 18.5C319.904 18.2865 319.703 18.1354 319.469 18.0469C319.234 17.9583 318.982 17.9141 318.711 17.9141C318.44 17.9141 318.198 17.9505 317.984 18.0234C317.776 18.0964 317.576 18.2422 317.383 18.4609C317.211 18.6641 317.073 18.9427 316.969 19.2969C316.87 19.651 316.82 20.0964 316.82 20.6328C316.82 21.112 316.865 21.5286 316.953 21.8828C317.042 22.2318 317.172 22.513 317.344 22.7266C317.51 22.9297 317.708 23.0781 317.938 23.1719C318.172 23.2656 318.438 23.3125 318.734 23.3125C318.99 23.3125 319.232 23.2708 319.461 23.1875C319.695 23.099 319.893 22.9531 320.055 22.75ZM322.18 12.3594C322.128 13.2396 321.911 13.8932 321.531 14.3203C321.156 14.7422 320.63 14.9531 319.953 14.9531C319.708 14.9531 319.474 14.9062 319.25 14.8125C319.031 14.7135 318.831 14.6094 318.648 14.5C318.487 14.401 318.307 14.3021 318.109 14.2031C317.917 14.099 317.755 14.0469 317.625 14.0469C317.37 14.0469 317.198 14.1302 317.109 14.2969C317.026 14.4635 316.977 14.6979 316.961 15H315.25C315.281 14.2135 315.497 13.5859 315.898 13.1172C316.305 12.6484 316.828 12.4141 317.469 12.4141C317.719 12.4141 317.956 12.4609 318.18 12.5547C318.404 12.6432 318.609 12.7422 318.797 12.8516C318.99 12.9557 319.169 13.0547 319.336 13.1484C319.503 13.237 319.656 13.2812 319.797 13.2812C320.047 13.2812 320.219 13.1979 320.312 13.0312C320.406 12.8646 320.458 12.6406 320.469 12.3594H322.18ZM334.172 21.1328H327.734C327.776 21.8203 328.036 22.3464 328.516 22.7109C329 23.0755 329.711 23.2578 330.648 23.2578C331.242 23.2578 331.818 23.151 332.375 22.9375C332.932 22.724 333.372 22.4948 333.695 22.25H334.008V24.5078C333.372 24.763 332.773 24.9479 332.211 25.0625C331.648 25.1771 331.026 25.2344 330.344 25.2344C328.583 25.2344 327.234 24.8385 326.297 24.0469C325.359 23.2552 324.891 22.1276 324.891 20.6641C324.891 19.2161 325.333 18.0703 326.219 17.2266C327.109 16.3776 328.328 15.9531 329.875 15.9531C331.302 15.9531 332.375 16.3151 333.094 17.0391C333.812 17.7578 334.172 18.7943 334.172 20.1484V21.1328ZM331.375 19.4844C331.359 18.8958 331.214 18.4531 330.938 18.1562C330.661 17.8594 330.232 17.7109 329.648 17.7109C329.107 17.7109 328.661 17.8516 328.312 18.1328C327.964 18.4141 327.768 18.8646 327.727 19.4844H331.375ZM343.781 22.2188C343.781 23.125 343.375 23.8568 342.562 24.4141C341.75 24.9661 340.638 25.2422 339.227 25.2422C338.445 25.2422 337.737 25.1693 337.102 25.0234C336.466 24.8776 335.956 24.7161 335.57 24.5391V22.2266H335.828C335.969 22.3255 336.13 22.4349 336.312 22.5547C336.5 22.6693 336.763 22.7943 337.102 22.9297C337.393 23.0495 337.724 23.1536 338.094 23.2422C338.464 23.3255 338.859 23.3672 339.281 23.3672C339.833 23.3672 340.242 23.3073 340.508 23.1875C340.773 23.0625 340.906 22.8802 340.906 22.6406C340.906 22.4271 340.828 22.2734 340.672 22.1797C340.516 22.0807 340.219 21.987 339.781 21.8984C339.573 21.8516 339.289 21.8021 338.93 21.75C338.576 21.6927 338.253 21.625 337.961 21.5469C337.164 21.3385 336.573 21.0156 336.188 20.5781C335.802 20.1354 335.609 19.5859 335.609 18.9297C335.609 18.0859 336.008 17.3854 336.805 16.8281C337.607 16.2656 338.701 15.9844 340.086 15.9844C340.742 15.9844 341.37 16.0521 341.969 16.1875C342.573 16.3177 343.044 16.4583 343.383 16.6094V18.8281H343.141C342.724 18.5417 342.247 18.3099 341.711 18.1328C341.18 17.9505 340.641 17.8594 340.094 17.8594C339.641 17.8594 339.258 17.9219 338.945 18.0469C338.638 18.1719 338.484 18.349 338.484 18.5781C338.484 18.7865 338.555 18.9453 338.695 19.0547C338.836 19.1641 339.167 19.2734 339.688 19.3828C339.974 19.4401 340.281 19.4974 340.609 19.5547C340.943 19.6068 341.276 19.6745 341.609 19.7578C342.349 19.9505 342.896 20.2552 343.25 20.6719C343.604 21.0833 343.781 21.599 343.781 22.2188Z" fill="black" fill-opacity="0.7"/>
<path d="M201.875 58.9375C201.875 63.7785 200.304 68.2504 197.656 71.8785L211.009 85.2414C212.327 86.5598 212.327 88.7008 211.009 90.0191C209.69 91.3375 207.549 91.3375 206.231 90.0191L192.879 76.6562C189.25 79.3141 184.779 80.875 179.938 80.875C167.819 80.875 158 71.0559 158 58.9375C158 46.8191 167.819 37 179.938 37C192.056 37 201.875 46.8191 201.875 58.9375ZM168.969 59.7812V66.5312C168.969 67.934 170.097 69.0625 171.5 69.0625C172.903 69.0625 174.031 67.934 174.031 66.5312V59.7812C174.031 58.3785 172.903 57.25 171.5 57.25C170.097 57.25 168.969 58.3785 168.969 59.7812ZM177.406 49.6562V66.5312C177.406 67.934 178.535 69.0625 179.938 69.0625C181.34 69.0625 182.469 67.934 182.469 66.5312V49.6562C182.469 48.2535 181.34 47.125 179.938 47.125C178.535 47.125 177.406 48.2535 177.406 49.6562ZM185.844 56.4062V66.5312C185.844 67.934 186.972 69.0625 188.375 69.0625C189.778 69.0625 190.906 67.934 190.906 66.5312V56.4062C190.906 55.0035 189.778 53.875 188.375 53.875C186.972 53.875 185.844 55.0035 185.844 56.4062Z" fill="black"/>
<path d="M42.3516 73H37.6992L36.4922 69.4727H30.0234L28.8164 73H24.2812L30.7266 55.5508H35.9062L42.3516 73ZM35.4023 66.2734L33.2578 60.0156L31.1133 66.2734H35.4023ZM57.8438 73H53.6016V66.4727C53.6016 65.9414 53.5742 65.4141 53.5195 64.8906C53.4648 64.3594 53.3711 63.9688 53.2383 63.7188C53.082 63.4297 52.8516 63.2188 52.5469 63.0859C52.25 62.9531 51.832 62.8867 51.293 62.8867C50.9102 62.8867 50.5195 62.9492 50.1211 63.0742C49.7305 63.1992 49.3047 63.3984 48.8438 63.6719V73H44.625V59.8398H48.8438V61.293C49.5938 60.707 50.3125 60.2578 51 59.9453C51.6953 59.6328 52.4648 59.4766 53.3086 59.4766C54.7305 59.4766 55.8398 59.8906 56.6367 60.7188C57.4414 61.5469 57.8438 62.7852 57.8438 64.4336V73ZM69.7031 69.5664V66.8242C69.1328 66.8711 68.5156 66.9375 67.8516 67.0234C67.1875 67.1016 66.6836 67.1953 66.3398 67.3047C65.918 67.4375 65.5938 67.6328 65.3672 67.8906C65.1484 68.1406 65.0391 68.4727 65.0391 68.8867C65.0391 69.1602 65.0625 69.3828 65.1094 69.5547C65.1562 69.7266 65.2734 69.8906 65.4609 70.0469C65.6406 70.2031 65.8555 70.3203 66.1055 70.3984C66.3555 70.4688 66.7461 70.5039 67.2773 70.5039C67.6992 70.5039 68.125 70.418 68.5547 70.2461C68.9922 70.0742 69.375 69.8477 69.7031 69.5664ZM69.7031 71.6055C69.4766 71.7773 69.1953 71.9844 68.8594 72.2266C68.5234 72.4688 68.207 72.6602 67.9102 72.8008C67.4961 72.9883 67.0664 73.125 66.6211 73.2109C66.1758 73.3047 65.6875 73.3516 65.1562 73.3516C63.9062 73.3516 62.8594 72.9648 62.0156 72.1914C61.1719 71.418 60.75 70.4297 60.75 69.2266C60.75 68.2656 60.9648 67.4805 61.3945 66.8711C61.8242 66.2617 62.4336 65.7812 63.2227 65.4297C64.0039 65.0781 64.9727 64.8281 66.1289 64.6797C67.2852 64.5312 68.4844 64.4219 69.7266 64.3516V64.2812C69.7266 63.5547 69.4297 63.0547 68.8359 62.7812C68.2422 62.5 67.3672 62.3594 66.2109 62.3594C65.5156 62.3594 64.7734 62.4844 63.9844 62.7344C63.1953 62.9766 62.6289 63.1641 62.2852 63.2969H61.8984V60.1211C62.3438 60.0039 63.0664 59.8672 64.0664 59.7109C65.0742 59.5469 66.082 59.4648 67.0898 59.4648C69.4883 59.4648 71.2188 59.8359 72.2812 60.5781C73.3516 61.3125 73.8867 62.4688 73.8867 64.0469V73H69.7031V71.6055ZM81.9844 73H77.7656V54.7656H81.9844V73ZM90.1875 73H85.9688V59.8398H90.1875V73ZM92.2031 53.3594V53.5938L88.0781 57.9648H85.1953L88.0898 53.3594H92.2031ZM102.586 72.8828C102.133 73 101.652 73.0898 101.145 73.1523C100.637 73.2227 100.016 73.2578 99.2812 73.2578C97.6406 73.2578 96.418 72.9258 95.6133 72.2617C94.8164 71.5977 94.418 70.4609 94.418 68.8516V62.6992H92.6836V59.8398H94.418V56.0781H98.6367V59.8398H102.586V62.6992H98.6367V67.3633C98.6367 67.8242 98.6406 68.2266 98.6484 68.5703C98.6562 68.9141 98.7188 69.2227 98.8359 69.4961C98.9453 69.7695 99.1367 69.9883 99.4102 70.1523C99.6914 70.3086 100.098 70.3867 100.629 70.3867C100.848 70.3867 101.133 70.3398 101.484 70.2461C101.844 70.1523 102.094 70.0664 102.234 69.9883H102.586V72.8828ZM109.336 73H105.117V59.8398H109.336V73ZM109.453 57.9648H105V54.7656H109.453V57.9648ZM120.176 73.3516C119.027 73.3516 117.977 73.2148 117.023 72.9414C116.078 72.668 115.254 72.2461 114.551 71.6758C113.855 71.1055 113.316 70.3867 112.934 69.5195C112.551 68.6523 112.359 67.6367 112.359 66.4727C112.359 65.2461 112.562 64.1875 112.969 63.2969C113.383 62.4062 113.957 61.668 114.691 61.082C115.402 60.5273 116.223 60.1211 117.152 59.8633C118.082 59.6055 119.047 59.4766 120.047 59.4766C120.945 59.4766 121.773 59.5742 122.531 59.7695C123.289 59.9648 123.996 60.2188 124.652 60.5312V64.1289H124.055C123.891 63.9883 123.691 63.8242 123.457 63.6367C123.23 63.4492 122.949 63.2656 122.613 63.0859C122.293 62.9141 121.941 62.7734 121.559 62.6641C121.176 62.5469 120.73 62.4883 120.223 62.4883C119.098 62.4883 118.23 62.8477 117.621 63.5664C117.02 64.2773 116.719 65.2461 116.719 66.4727C116.719 67.7383 117.027 68.6992 117.645 69.3555C118.27 70.0117 119.152 70.3398 120.293 70.3398C120.824 70.3398 121.301 70.2812 121.723 70.1641C122.152 70.0391 122.508 69.8945 122.789 69.7305C123.055 69.5742 123.289 69.4102 123.492 69.2383C123.695 69.0664 123.883 68.8984 124.055 68.7344H124.652V72.332C123.988 72.6445 123.293 72.8906 122.566 73.0703C121.848 73.2578 121.051 73.3516 120.176 73.3516ZM135.422 69.5664V66.8242C134.852 66.8711 134.234 66.9375 133.57 67.0234C132.906 67.1016 132.402 67.1953 132.059 67.3047C131.637 67.4375 131.312 67.6328 131.086 67.8906C130.867 68.1406 130.758 68.4727 130.758 68.8867C130.758 69.1602 130.781 69.3828 130.828 69.5547C130.875 69.7266 130.992 69.8906 131.18 70.0469C131.359 70.2031 131.574 70.3203 131.824 70.3984C132.074 70.4688 132.465 70.5039 132.996 70.5039C133.418 70.5039 133.844 70.418 134.273 70.2461C134.711 70.0742 135.094 69.8477 135.422 69.5664ZM135.422 71.6055C135.195 71.7773 134.914 71.9844 134.578 72.2266C134.242 72.4688 133.926 72.6602 133.629 72.8008C133.215 72.9883 132.785 73.125 132.34 73.2109C131.895 73.3047 131.406 73.3516 130.875 73.3516C129.625 73.3516 128.578 72.9648 127.734 72.1914C126.891 71.418 126.469 70.4297 126.469 69.2266C126.469 68.2656 126.684 67.4805 127.113 66.8711C127.543 66.2617 128.152 65.7812 128.941 65.4297C129.723 65.0781 130.691 64.8281 131.848 64.6797C133.004 64.5312 134.203 64.4219 135.445 64.3516V64.2812C135.445 63.5547 135.148 63.0547 134.555 62.7812C133.961 62.5 133.086 62.3594 131.93 62.3594C131.234 62.3594 130.492 62.4844 129.703 62.7344C128.914 62.9766 128.348 63.1641 128.004 63.2969H127.617V60.1211C128.062 60.0039 128.785 59.8672 129.785 59.7109C130.793 59.5469 131.801 59.4648 132.809 59.4648C135.207 59.4648 136.938 59.8359 138 60.5781C139.07 61.3125 139.605 62.4688 139.605 64.0469V73H135.422V71.6055Z" fill="black"/>
</g>
<defs>
<clipPath id="clip0_23_2">
<rect width="1280" height="1080" fill="white"/>
</clipPath>
</defs>
</svg>
