<svg width="1280" height="1080" viewBox="0 0 1280 1080" fill="none" xmlns="http://www.w3.org/2000/svg">
<g clip-path="url(#clip0_23_4)">
<rect width="1280" height="1080" fill="#FDF6EC"/>
<rect y="1044" width="1280" height="36" fill="#EBDDCB"/>
<rect x="24" y="549" width="390" height="1230" transform="rotate(-90 24 549)" fill="#F3D9CF" fill-opacity="0.7"/>
<rect x="2" y="1" width="1280" height="125" fill="#EBDDCB"/>
<path d="M192.75 91.125H190.812C189.785 91.125 188.799 90.7167 188.072 89.99C187.346 89.2633 186.938 88.2777 186.938 87.25V46.5625C186.938 45.5348 187.346 44.5492 188.072 43.8225C188.799 43.0958 189.785 42.6875 190.812 42.6875H192.75C193.778 42.6875 194.763 43.0958 195.49 43.8225C196.217 44.5492 196.625 45.5348 196.625 46.5625V87.25C196.625 88.2777 196.217 89.2633 195.49 89.99C194.763 90.7167 193.778 91.125 192.75 91.125ZM214.062 54.3125C214.062 53.2848 213.654 52.2992 212.928 51.5725C212.201 50.8458 211.215 50.4375 210.188 50.4375H202.438C201.41 50.4375 200.424 50.8458 199.697 51.5725C198.971 52.2992 198.562 53.2848 198.562 54.3125V57.7031C198.562 57.8316 198.614 57.9548 198.704 58.0456C198.795 58.1365 198.918 58.1875 199.047 58.1875H213.578C213.707 58.1875 213.83 58.1365 213.921 58.0456C214.011 57.9548 214.062 57.8316 214.062 57.7031V54.3125ZM198.562 87.25C198.562 88.2777 198.971 89.2633 199.697 89.99C200.424 90.7167 201.41 91.125 202.438 91.125H210.188C211.215 91.125 212.201 90.7167 212.928 89.99C213.654 89.2633 214.062 88.2777 214.062 87.25V83.6172C214.062 83.553 214.037 83.4914 213.992 83.4459C213.946 83.4005 213.885 83.375 213.82 83.375H198.805C198.74 83.375 198.679 83.4005 198.633 83.4459C198.588 83.4914 198.562 83.553 198.562 83.6172V87.25Z" fill="black"/>
<path d="M213.82 62.0625H198.805C198.671 62.0625 198.562 62.1709 198.562 62.3047V79.2578C198.562 79.3916 198.671 79.5 198.805 79.5H213.82C213.954 79.5 214.062 79.3916 214.062 79.2578V62.3047C214.062 62.1709 213.954 62.0625 213.82 62.0625Z" fill="black"/>
<path d="M223.75 91.125H219.875C218.847 91.125 217.862 90.7167 217.135 89.99C216.408 89.2633 216 88.2777 216 87.25V40.75C216 39.7223 216.408 38.7367 217.135 38.01C217.862 37.2833 218.847 36.875 219.875 36.875H223.75C224.778 36.875 225.763 37.2833 226.49 38.01C227.217 38.7367 227.625 39.7223 227.625 40.75V87.25C227.625 88.2777 227.217 89.2633 226.49 89.99C225.763 90.7167 224.778 91.125 223.75 91.125ZM245.049 86.9412L241.146 45.7693C240.967 43.8742 239.095 42.4998 236.965 42.7045L233.108 43.0677C230.978 43.27 229.397 44.9701 229.576 46.8652L233.479 88.0371C233.658 89.9322 235.53 91.3066 237.66 91.102L241.517 90.7387C243.647 90.5365 245.228 88.8363 245.049 86.9412Z" fill="black"/>
<path d="M41.6602 72.0039C40.8789 72.3086 39.8438 72.6133 38.5547 72.918C37.2656 73.2148 35.9805 73.3633 34.6992 73.3633C31.7305 73.3633 29.4062 72.5586 27.7266 70.9492C26.0469 69.332 25.207 67.1016 25.207 64.2578C25.207 61.5469 26.0547 59.3633 27.75 57.707C29.4453 56.043 31.8086 55.2109 34.8398 55.2109C35.9883 55.2109 37.082 55.3164 38.1211 55.5273C39.1602 55.7305 40.3164 56.1406 41.5898 56.7578V60.8477H41.0859C40.8672 60.6836 40.5469 60.4531 40.125 60.1562C39.7031 59.8516 39.2969 59.5938 38.9062 59.3828C38.4531 59.1328 37.9219 58.918 37.3125 58.7383C36.7109 58.5586 36.0703 58.4688 35.3906 58.4688C34.5938 58.4688 33.8711 58.5859 33.2227 58.8203C32.5742 59.0547 31.9922 59.4141 31.4766 59.8984C30.9844 60.3672 30.5938 60.9648 30.3047 61.6914C30.0234 62.4102 29.8828 63.2422 29.8828 64.1875C29.8828 66.1172 30.3945 67.5938 31.418 68.6172C32.4414 69.6406 33.9531 70.1523 35.9531 70.1523C36.125 70.1523 36.3125 70.1484 36.5156 70.1406C36.7266 70.1328 36.918 70.1211 37.0898 70.1055V66.6836H33.6094V63.3906H41.6602V72.0039ZM49.6875 73H45.4688V54.7656H49.6875V73ZM67.125 66.4258C67.125 68.5898 66.4922 70.2969 65.2266 71.5469C63.9688 72.7891 62.1992 73.4102 59.918 73.4102C57.6367 73.4102 55.8633 72.7891 54.5977 71.5469C53.3398 70.2969 52.7109 68.5898 52.7109 66.4258C52.7109 64.2461 53.3438 62.5352 54.6094 61.293C55.8828 60.0508 57.6523 59.4297 59.918 59.4297C62.2148 59.4297 63.9883 60.0547 65.2383 61.3047C66.4961 62.5547 67.125 64.2617 67.125 66.4258ZM61.9336 69.625C62.207 69.2891 62.4102 68.8867 62.543 68.418C62.6836 67.9414 62.7539 67.2852 62.7539 66.4492C62.7539 65.6758 62.6836 65.0273 62.543 64.5039C62.4023 63.9805 62.207 63.5625 61.957 63.25C61.707 62.9297 61.4062 62.7031 61.0547 62.5703C60.7031 62.4375 60.3242 62.3711 59.918 62.3711C59.5117 62.3711 59.1484 62.4258 58.8281 62.5352C58.5156 62.6445 58.2148 62.8633 57.9258 63.1914C57.668 63.4961 57.4609 63.9141 57.3047 64.4453C57.1562 64.9766 57.082 65.6445 57.082 66.4492C57.082 67.168 57.1484 67.793 57.2812 68.3242C57.4141 68.8477 57.6094 69.2695 57.8672 69.5898C58.1172 69.8945 58.4141 70.1172 58.7578 70.2578C59.1094 70.3984 59.5078 70.4688 59.9531 70.4688C60.3359 70.4688 60.6992 70.4062 61.043 70.2812C61.3945 70.1484 61.6914 69.9297 61.9336 69.625ZM81.5859 68.8281C81.5859 70.1875 80.9766 71.2852 79.7578 72.1211C78.5391 72.9492 76.8711 73.3633 74.7539 73.3633C73.582 73.3633 72.5195 73.2539 71.5664 73.0352C70.6133 72.8164 69.8477 72.5742 69.2695 72.3086V68.8398H69.6562C69.8672 68.9883 70.1094 69.1523 70.3828 69.332C70.6641 69.5039 71.0586 69.6914 71.5664 69.8945C72.0039 70.0742 72.5 70.2305 73.0547 70.3633C73.6094 70.4883 74.2031 70.5508 74.8359 70.5508C75.6641 70.5508 76.2773 70.4609 76.6758 70.2812C77.0742 70.0938 77.2734 69.8203 77.2734 69.4609C77.2734 69.1406 77.1562 68.9102 76.9219 68.7695C76.6875 68.6211 76.2422 68.4805 75.5859 68.3477C75.2734 68.2773 74.8477 68.2031 74.3086 68.125C73.7773 68.0391 73.293 67.9375 72.8555 67.8203C71.6602 67.5078 70.7734 67.0234 70.1953 66.3672C69.6172 65.7031 69.3281 64.8789 69.3281 63.8945C69.3281 62.6289 69.9258 61.5781 71.1211 60.7422C72.3242 59.8984 73.9648 59.4766 76.043 59.4766C77.0273 59.4766 77.9688 59.5781 78.8672 59.7812C79.7734 59.9766 80.4805 60.1875 80.9883 60.4141V63.7422H80.625C80 63.3125 79.2852 62.9648 78.4805 62.6992C77.6836 62.4258 76.875 62.2891 76.0547 62.2891C75.375 62.2891 74.8008 62.3828 74.332 62.5703C73.8711 62.7578 73.6406 63.0234 73.6406 63.3672C73.6406 63.6797 73.7461 63.918 73.957 64.082C74.168 64.2461 74.6641 64.4102 75.4453 64.5742C75.875 64.6602 76.3359 64.7461 76.8281 64.832C77.3281 64.9102 77.8281 65.0117 78.3281 65.1367C79.4375 65.4258 80.2578 65.8828 80.7891 66.5078C81.3203 67.125 81.5859 67.8984 81.5859 68.8281ZM95.8359 68.8281C95.8359 70.1875 95.2266 71.2852 94.0078 72.1211C92.7891 72.9492 91.1211 73.3633 89.0039 73.3633C87.832 73.3633 86.7695 73.2539 85.8164 73.0352C84.8633 72.8164 84.0977 72.5742 83.5195 72.3086V68.8398H83.9062C84.1172 68.9883 84.3594 69.1523 84.6328 69.332C84.9141 69.5039 85.3086 69.6914 85.8164 69.8945C86.2539 70.0742 86.75 70.2305 87.3047 70.3633C87.8594 70.4883 88.4531 70.5508 89.0859 70.5508C89.9141 70.5508 90.5273 70.4609 90.9258 70.2812C91.3242 70.0938 91.5234 69.8203 91.5234 69.4609C91.5234 69.1406 91.4062 68.9102 91.1719 68.7695C90.9375 68.6211 90.4922 68.4805 89.8359 68.3477C89.5234 68.2773 89.0977 68.2031 88.5586 68.125C88.0273 68.0391 87.543 67.9375 87.1055 67.8203C85.9102 67.5078 85.0234 67.0234 84.4453 66.3672C83.8672 65.7031 83.5781 64.8789 83.5781 63.8945C83.5781 62.6289 84.1758 61.5781 85.3711 60.7422C86.5742 59.8984 88.2148 59.4766 90.293 59.4766C91.2773 59.4766 92.2188 59.5781 93.1172 59.7812C94.0234 59.9766 94.7305 60.1875 95.2383 60.4141V63.7422H94.875C94.25 63.3125 93.5352 62.9648 92.7305 62.6992C91.9336 62.4258 91.125 62.2891 90.3047 62.2891C89.625 62.2891 89.0508 62.3828 88.582 62.5703C88.1211 62.7578 87.8906 63.0234 87.8906 63.3672C87.8906 63.6797 87.9961 63.918 88.207 64.082C88.418 64.2461 88.9141 64.4102 89.6953 64.5742C90.125 64.6602 90.5859 64.7461 91.0781 64.832C91.5781 64.9102 92.0781 65.0117 92.5781 65.1367C93.6875 65.4258 94.5078 65.8828 95.0391 66.5078C95.5703 67.125 95.8359 67.8984 95.8359 68.8281ZM106.617 69.5664V66.8242C106.047 66.8711 105.43 66.9375 104.766 67.0234C104.102 67.1016 103.598 67.1953 103.254 67.3047C102.832 67.4375 102.508 67.6328 102.281 67.8906C102.062 68.1406 101.953 68.4727 101.953 68.8867C101.953 69.1602 101.977 69.3828 102.023 69.5547C102.07 69.7266 102.188 69.8906 102.375 70.0469C102.555 70.2031 102.77 70.3203 103.02 70.3984C103.27 70.4688 103.66 70.5039 104.191 70.5039C104.613 70.5039 105.039 70.418 105.469 70.2461C105.906 70.0742 106.289 69.8477 106.617 69.5664ZM106.617 71.6055C106.391 71.7773 106.109 71.9844 105.773 72.2266C105.438 72.4688 105.121 72.6602 104.824 72.8008C104.41 72.9883 103.98 73.125 103.535 73.2109C103.09 73.3047 102.602 73.3516 102.07 73.3516C100.82 73.3516 99.7734 72.9648 98.9297 72.1914C98.0859 71.418 97.6641 70.4297 97.6641 69.2266C97.6641 68.2656 97.8789 67.4805 98.3086 66.8711C98.7383 66.2617 99.3477 65.7812 100.137 65.4297C100.918 65.0781 101.887 64.8281 103.043 64.6797C104.199 64.5312 105.398 64.4219 106.641 64.3516V64.2812C106.641 63.5547 106.344 63.0547 105.75 62.7812C105.156 62.5 104.281 62.3594 103.125 62.3594C102.43 62.3594 101.688 62.4844 100.898 62.7344C100.109 62.9766 99.543 63.1641 99.1992 63.2969H98.8125V60.1211C99.2578 60.0039 99.9805 59.8672 100.98 59.7109C101.988 59.5469 102.996 59.4648 104.004 59.4648C106.402 59.4648 108.133 59.8359 109.195 60.5781C110.266 61.3125 110.801 62.4688 110.801 64.0469V73H106.617V71.6055ZM108.879 53.3594V53.5938L104.754 57.9648H101.871L104.766 53.3594H108.879ZM124.219 63.8594H123.844C123.664 63.7969 123.375 63.75 122.977 63.7188C122.578 63.6875 122.246 63.6719 121.98 63.6719C121.379 63.6719 120.848 63.7109 120.387 63.7891C119.926 63.8672 119.43 64 118.898 64.1875V73H114.68V59.8398H118.898V61.7734C119.828 60.9766 120.637 60.4492 121.324 60.1914C122.012 59.9258 122.645 59.793 123.223 59.793C123.371 59.793 123.539 59.7969 123.727 59.8047C123.914 59.8125 124.078 59.8242 124.219 59.8398V63.8594ZM130.828 73H126.609V59.8398H130.828V73ZM130.945 57.9648H126.492V54.7656H130.945V57.9648ZM148.266 66.4258C148.266 68.5898 147.633 70.2969 146.367 71.5469C145.109 72.7891 143.34 73.4102 141.059 73.4102C138.777 73.4102 137.004 72.7891 135.738 71.5469C134.48 70.2969 133.852 68.5898 133.852 66.4258C133.852 64.2461 134.484 62.5352 135.75 61.293C137.023 60.0508 138.793 59.4297 141.059 59.4297C143.355 59.4297 145.129 60.0547 146.379 61.3047C147.637 62.5547 148.266 64.2617 148.266 66.4258ZM143.074 69.625C143.348 69.2891 143.551 68.8867 143.684 68.418C143.824 67.9414 143.895 67.2852 143.895 66.4492C143.895 65.6758 143.824 65.0273 143.684 64.5039C143.543 63.9805 143.348 63.5625 143.098 63.25C142.848 62.9297 142.547 62.7031 142.195 62.5703C141.844 62.4375 141.465 62.3711 141.059 62.3711C140.652 62.3711 140.289 62.4258 139.969 62.5352C139.656 62.6445 139.355 62.8633 139.066 63.1914C138.809 63.4961 138.602 63.9141 138.445 64.4453C138.297 64.9766 138.223 65.6445 138.223 66.4492C138.223 67.168 138.289 67.793 138.422 68.3242C138.555 68.8477 138.75 69.2695 139.008 69.5898C139.258 69.8945 139.555 70.1172 139.898 70.2578C140.25 70.3984 140.648 70.4688 141.094 70.4688C141.477 70.4688 141.84 70.4062 142.184 70.2812C142.535 70.1484 142.832 69.9297 143.074 69.625Z" fill="black"/>
</g>
<defs>
<clipPath id="clip0_23_4">
<rect width="1280" height="1080" fill="white"/>
</clipPath>
</defs>
</svg>
